<?xml version="1.0" encoding="UTF-8" standalone="no"?>
<!-- Created with Inkscape (http://www.inkscape.org/) -->

<svg
   version="1.1"
   id="svg1"
   width="365.99539"
   height="367.15881"
   viewBox="0 0 365.99539 367.15881"
   sodipodi:docname="BookABook_Logo.png"
   xmlns:inkscape="http://www.inkscape.org/namespaces/inkscape"
   xmlns:sodipodi="http://sodipodi.sourceforge.net/DTD/sodipodi-0.dtd"
   xmlns="http://www.w3.org/2000/svg"
   xmlns:svg="http://www.w3.org/2000/svg">
  <defs
     id="defs1" />
  <sodipodi:namedview
     id="namedview1"
     pagecolor="#ffffff"
     bordercolor="#000000"
     borderopacity="0.25"
     inkscape:showpageshadow="2"
     inkscape:pageopacity="0.0"
     inkscape:pagecheckerboard="0"
     inkscape:deskcolor="#d1d1d1"
     inkscape:export-bgcolor="#ffffff00" />
  <g
     inkscape:groupmode="layer"
     id="layer1"
     inkscape:label="vector"
     transform="translate(-179.74356,-22.472763)">
    <path
       style="fill:#ffffff;fill-opacity:1"
       d="m 349.24556,385.22926 -0.75362,-4.25 -1.52946,3.80144 c -1.28586,3.19595 -1.94232,3.75343 -4.12147,3.5 -2.31887,-0.26967 -2.70992,-0.93372 -3.71092,-6.30144 -0.6154,-3.3 -1.46069,-7.2685 -1.87842,-8.81889 -0.75769,-2.81214 -0.75022,-2.81722 3.11619,-2.11734 4.31633,0.78131 5.50184,1.48642 3.6257,2.15647 -1.39144,0.49694 -1.68317,7.04879 -0.40365,9.06539 1.11973,1.76475 3.27756,-5.59578 2.50574,-8.54724 -0.50615,-1.93552 -0.19747,-2.23632 2.28128,-2.22308 3.76776,0.0201 6.39353,1.64426 4.56662,2.82461 -0.97538,0.63019 -1.08874,2.06605 -0.45398,5.75 l 0.84602,4.91008 1.72597,-4.99267 c 1.08051,-3.12554 1.34378,-5.12007 0.70399,-5.33333 -2.34972,-0.78324 -0.76448,-2.174 2.47801,-2.174 4.07736,0 4.10407,0.0921 1.57591,5.43428 -1.05824,2.23614 -2.61028,5.75322 -3.44897,7.81572 -1.17198,2.88213 -2.0857,3.75 -3.94811,3.75 -2.06596,0 -2.53432,-0.62658 -3.17683,-4.25 z m 15.498,2.25 c -3.12268,-3.12268 -2.77281,-10.24695 0.63486,-12.92742 5.71817,-4.49792 12.81969,-1.30477 12.81969,5.76429 0,7.75751 -8.39221,12.22547 -13.45455,7.16313 z m 8.57859,-3.45709 c 0.89796,-3.57776 -0.85744,-8.04291 -3.16192,-8.04291 -2.10844,0 -3.04633,3.85508 -1.9757,8.12083 0.81452,3.2453 4.31687,3.19219 5.13762,-0.0779 z m 9.76108,-2.13212 c -0.0882,-3.6473 -0.65069,-7.12181 -1.25,-7.72112 -1.95824,-1.95824 -1.16919,-2.53582 4.41789,-3.23388 3.81123,-0.47618 5.96724,-0.30663 7,0.55049 1.81724,1.50817 1.94493,5.12956 0.24244,6.87597 -1.00567,1.03161 -0.61362,1.81886 2.00573,4.0276 3.46283,2.92001 3.34859,4.09015 -0.39934,4.09015 -1.36082,0 -2.98349,-1.02743 -3.94835,-2.5 -0.90093,-1.375 -2.03631,-2.5 -2.52305,-2.5 -1.5223,0 -0.96538,2.85563 0.74343,3.81193 1.87483,1.04921 1.09959,1.69142 -3.12842,2.5916 l -3,0.63872 z m 7.16033,-5.98043 c 0,-1.04663 -0.7875,-2.05463 -1.75,-2.23999 -1.75992,-0.33893 -2.53354,2.69276 -1.0625,4.1638 1.18142,1.18142 2.8125,0.0657 2.8125,-1.92381 z m -61.69853,10.31964 c -0.86943,-0.6875 -2.16281,-3.05 -2.87417,-5.25 -1.21716,-3.7643 -1.33216,-3.85269 -1.95154,-1.5 -0.36198,1.375 -0.28352,2.9914 0.17437,3.59201 1.32827,1.74228 -0.0533,2.29614 -3.36121,1.34745 -3.81924,-1.09534 -4.58615,-1.82871 -2.96201,-2.83248 1.68568,-1.04181 4.44522,-11.49908 3.1509,-11.94031 -0.5378,-0.18334 -0.97781,-0.79592 -0.97781,-1.36129 0,-0.9004 6.82189,-0.29309 7.8299,0.69704 0.18145,0.17823 -0.44201,1.50214 -1.38546,2.94202 -2.09658,3.1998 -1.17191,4.52389 1.48199,2.12214 1.11359,-1.00778 1.68281,-2.42131 1.33746,-3.32128 -0.47901,-1.24828 -0.10955,-1.43524 1.81744,-0.91969 1.33027,0.35589 2.98117,0.65323 3.66867,0.66074 2.28288,0.0249 1.29446,1.82306 -2.18381,3.97274 -3.2531,2.01053 -3.37748,2.29111 -2.36352,5.33156 0.58866,1.76514 1.45887,3.63685 1.93381,4.15935 2.53271,2.78636 -0.27296,4.7213 -3.33501,2.3 z m 72.84921,-7.5992 c -0.42453,-4.55394 -1.15356,-7.04164 -2.31234,-7.89047 -2.06986,-1.51621 -1.60872,-2.05625 2.44877,-2.86775 2.85248,-0.5705 3.35144,-0.27265 5.42709,3.23958 l 2.2858,3.86784 0.30153,-4.67014 c 0.26784,-4.14838 0.62846,-4.78411 3.22789,-5.69027 2.7996,-0.97595 5.09801,0.0456 3.00835,1.33707 -1.20124,0.7424 2.28908,10.48928 4.17315,11.6537 1.53368,0.94786 0.29228,2.34176 -2.96092,3.32463 -1.87968,0.5679 -2.25225,0.29837 -2.26365,-1.6376 -0.008,-1.27457 -0.34501,-3.44239 -0.75,-4.81739 -0.61027,-2.07194 -0.82196,-1.64537 -1.23635,2.49132 -0.65051,6.49385 -2.77848,7.02682 -5.89759,1.47711 -1.26735,-2.25495 -2.48698,-3.9172 -2.71028,-3.69389 -0.944,0.944 0.97546,6.72546 2.23287,6.72546 2.41535,0 1.47493,1.76951 -1.48966,2.80298 l -2.86466,0.99862 z m -99.01582,-0.22338 c -3.75441,-2.95321 -3.6312,-8.08493 0.28822,-12.00434 6.62442,-6.62443 15.94236,-1.10544 13.03041,7.71786 -2.05453,6.22529 -8.29892,8.23499 -13.31863,4.28648 z m 8.23327,-5.24048 c 1.31016,-3.44233 1.2842,-3.96047 -0.27528,-5.49386 -1.6196,-1.59252 -1.83684,-1.55286 -3.65736,0.6677 -1.90636,2.32526 -2.60446,7.13692 -1.23425,8.50712 1.5349,1.53491 3.79437,-0.0748 5.16689,-3.68096 z m 113.4935,2.81306 c -0.31659,-0.825 -0.29714,-2.22568 0.0432,-3.11262 0.49865,-1.29945 0.90536,-1.37483 2.09426,-0.38813 1.66264,1.37987 4.96559,0.56166 4.00527,-0.99219 -0.34231,-0.55388 -1.89598,-1.00706 -3.45259,-1.00706 -1.55661,0 -3.87637,-0.84714 -5.15503,-1.88253 -2.03721,-1.64963 -2.17999,-2.20039 -1.15413,-4.4519 1.31611,-2.88855 6.69842,-6.09404 8.84765,-5.26931 1.579,0.60592 1.91645,4.17254 0.47884,5.06103 -0.512,0.31644 -1.21356,0.11799 -1.55902,-0.44098 -0.96278,-1.55781 -3.51008,-1.20679 -3.51008,0.48369 0,0.98722 0.98769,1.5 2.88922,1.5 4.17552,0 7.5689,3.03855 6.8027,6.09136 -1.0705,4.26521 -9.07454,7.68108 -10.33029,4.40864 z m -137.99755,-3.66959 c -4.85258,-2.34966 -4.90811,-8.47241 -0.12315,-13.58041 5.30044,-5.6583 15.39096,0.312 12.66921,7.49604 -2.40213,6.3404 -7.20597,8.67009 -12.54606,6.08437 z m 7.12863,-6.06379 c 1.87203,-3.48513 1.89021,-3.81228 0.30018,-5.4023 -2.04931,-2.04931 -3.92799,-0.86659 -5.79918,3.65088 -2.71731,6.56016 2.09302,8.09224 5.499,1.75142 z m 150.68145,-0.28372 c -1.21278,-2.66178 0.19588,-4.51286 2.03483,-2.67391 1.32398,1.32398 3.79101,0.40252 3.79101,-1.41598 0,-0.98529 -1.32339,-1.39301 -4.52144,-1.39301 -3.86145,0 -4.68896,-0.36767 -5.66908,-2.5188 -1.00756,-2.21134 -0.80957,-2.87167 1.62198,-5.40966 3.65176,-3.81161 6.29221,-4.45639 7.67427,-1.87398 1.40077,2.61735 -0.31768,4.70135 -2.43067,2.94773 -1.08733,-0.90241 -1.66674,-0.86024 -2.53371,0.18439 -1.61679,1.94812 -0.40242,2.67032 4.49013,2.67032 3.3589,0 4.54666,0.46434 5.43535,2.12488 1.44081,2.69216 -1.26118,6.69582 -5.75691,8.53027 -2.81197,1.1474 -3.11843,1.06054 -4.13576,-1.17225 z m -175.41409,-3.60645 c -4.39914,-2.87714 -5.37705,-4.87645 -2.38519,-4.87645 1.17061,0 5.95912,-7.26717 6.25977,-9.5 0.0741,-0.55 0.18656,-1.34906 0.25,-1.77568 0.16975,-1.14147 6.03507,2.10449 8.80143,4.87085 1.9517,1.9517 2.19397,2.76044 1.3175,4.39814 -0.59067,1.10368 -1.74169,2.00669 -2.55782,2.00669 -1.0593,0 -1.31466,0.67416 -0.89248,2.35624 0.66581,2.65282 -1.66305,5.651 -4.37471,5.632 -0.92321,-0.006 -3.81154,-1.40678 -6.4185,-3.11179 z m 6.767,-1.92025 c 0.35481,-0.5741 0.0825,-1.72168 -0.60508,-2.55019 -1.09379,-1.31794 -1.43211,-1.32446 -2.70441,-0.0522 -0.79983,0.79983 -1.14943,1.94741 -0.77689,2.55019 0.85865,1.38931 3.24118,1.41972 4.08638,0.0522 z m 3.30226,-7.3085 c 0.25442,-1.32108 -0.15595,-1.73145 -1.47703,-1.47703 -1.00613,0.19376 -1.98787,1.1755 -2.18163,2.18163 -0.25442,1.32108 0.15595,1.73145 1.47703,1.47703 1.00613,-0.19376 1.98787,-1.1755 2.18163,-2.18163 z m 180.17067,5.0493 c 0,-2.71194 -5.76552,-10.95995 -7.08932,-10.1418 -1.91782,1.18528 -0.80113,-1.826 1.33932,-3.61164 2.7728,-2.31316 3.75,-2.41055 3.75,-0.37374 0,2.32459 5.8658,10.43018 7.54804,10.43018 2.27929,0 1.71357,1.43047 -1.50755,3.81194 -3.70217,2.73714 -4.04049,2.72751 -4.04049,-0.11494 z m 9.88158,-5.27269 c -0.0651,-0.50837 -0.0495,-1.30883 0.0348,-1.77881 0.25836,-1.44054 -6.95802,-9.6455 -8.48336,-9.6455 -2.11371,0 -1.74272,-1.55044 0.77023,-3.21898 1.88702,-1.25293 2.84372,-1.27018 6.66488,-0.12018 2.45388,0.7385 4.68464,1.11969 4.95725,0.84708 0.76222,-0.76219 -2.96064,-4.50792 -4.48037,-4.50792 -1.93451,0 -1.66412,-0.9132 0.90499,-3.05644 2.78535,-2.32362 3.75,-2.41024 3.75,-0.33672 0,0.88376 1.81262,3.8834 4.02805,6.66586 2.21542,2.78245 3.859,5.54688 3.65238,6.14316 -0.42693,1.2321 -3.3683,1.26844 -9.18043,0.1134 l -4,-0.79491 2.39536,2.602 c 1.31745,1.43111 2.77995,2.36432 3.25,2.07381 0.47005,-0.29051 0.85464,-0.13008 0.85464,0.35651 0,1.25237 -4.97472,5.77925 -5.11842,4.65764 z m -219.40896,-4.8795 c -3.93771,-3.52796 -4.55638,-4.46826 -2.97262,-4.51802 2.24126,-0.0704 8.5,-7.03569 8.5,-9.45953 0,-2.51712 2.18583,-1.75783 6.9292,2.40699 3.79469,3.33185 4.24274,4.11365 3.12756,5.45736 -1.80207,2.17136 -4.05676,1.96428 -4.05676,-0.37259 0,-2.59229 -1.73025,-3.52779 -3.62161,-1.9581 -1.3565,1.12581 -1.27694,1.467 0.68763,2.94888 1.31461,0.99161 1.91824,2.16665 1.47852,2.87813 -0.55025,0.89032 -1.24444,0.74864 -2.67495,-0.54595 -1.82672,-1.65316 -2.02538,-1.65473 -3.65072,-0.029 -1.50561,1.506 -1.53277,1.83607 -0.21887,2.66033 0.825,0.51755 2.24963,0.70797 3.16584,0.42315 2.465,-0.76627 3.32289,1.47805 1.1843,3.09824 -1.01758,0.77092 -2.08746,1.41597 -2.37752,1.43347 -0.29006,0.0175 -2.76506,-1.97303 -5.5,-4.42339 z m -10.47262,-9.54481 c -1.1749,-1.65 -1.88055,-3.05625 -1.56809,-3.125 0.31245,-0.0688 0.90559,-0.193 1.31809,-0.27611 0.4125,-0.0831 1.64063,-0.66497 2.72919,-1.29301 1.94327,-1.12118 1.94486,-1.17983 0.0877,-3.23199 -1.756,-1.94035 -2.0203,-1.97352 -3.68949,-0.46292 -0.9889,0.89494 -1.76257,1.91109 -1.71927,2.2581 0.28074,2.24979 -0.51356,2.16457 -3.12255,-0.335 -2.69215,-2.57924 -3.33484,-5.4551 -0.88006,-3.93796 1.28534,0.79438 7.73004,-5.30533 8.97198,-8.49168 l 0.93371,-2.39557 2.46941,2.31988 c 2.96157,2.78225 3.19425,4.97126 0.52842,4.97126 -2.83002,0 -3.51271,1.8412 -1.50519,4.05948 2.06113,2.27753 4.44617,1.00673 4.44617,-2.36902 0,-1.90629 0.23008,-1.84421 3,0.80954 3.14621,3.01426 3.86561,4.78645 1.74534,4.29955 -1.91241,-0.43916 -9.74534,6.28657 -9.74534,8.36781 0,2.69637 -1.57636,2.23633 -4,-1.16736 z m 241.92486,-3.2818 c -0.86633,-0.67001 -2.34936,-2.40805 -3.29563,-3.86231 -2.18427,-3.35687 -1.3908,-6.75207 2.43444,-10.41689 2.79236,-2.67525 2.97545,-2.71358 4.85166,-1.01563 2.57547,2.33077 1.651,4.75687 -1.51027,3.96345 -3.15162,-0.79101 -4.1679,1.79999 -2.00236,5.10502 3.05186,4.65773 9.13493,4.28008 7.88761,-0.48968 -0.69157,-2.64459 1.19225,-3.23141 3.21133,-1.00034 1.70181,1.88047 1.667,2.0883 -0.91724,5.47641 -2.10261,2.75667 -3.38118,3.51486 -5.88529,3.48997 -1.75951,-0.0175 -3.90792,-0.58 -4.77425,-1.25 z m 15.21072,-10.86161 c -1.06822,-2.80962 -7.21512,-7.85659 -9.56886,-7.85659 -2.16015,0 -2.05206,-0.31981 2.02709,-5.99769 3.8833,-5.40528 4.52869,-5.76456 6.36984,-3.54611 1.25325,1.51008 0.51964,3.96052 -0.91944,3.07112 -1.16758,-0.7216 -3.34328,2.17976 -2.57128,3.42888 0.94622,1.53101 2.63794,1.27443 4.01512,-0.60898 0.69366,-0.94863 1.72696,-1.33237 2.42539,-0.90072 0.91087,0.56295 0.77723,1.23782 -0.53146,2.68391 -1.59673,1.76436 -1.61069,2.06945 -0.1611,3.51904 1.96092,1.96092 3.95506,0.89365 3.72748,-1.99496 -0.37163,-4.71697 -0.032,-5.08173 2.50876,-2.69477 l 2.45712,2.30834 -3.6571,4.61597 c -2.0114,2.53878 -4.00038,5.02675 -4.41996,5.52881 -0.41957,0.50206 -1.18529,-0.19825 -1.7016,-1.55625 z M 223.44259,320.9687 c -3.28839,-4.12121 -3.40125,-5.33347 -0.44903,-4.82321 1.53027,0.2645 3.52952,-0.76278 6.25,-3.21143 3.23143,-2.90855 3.56787,-3.50831 1.751,-3.12144 -3.22213,0.68609 -3.96496,-1.33681 -1.28713,-3.50518 l 2.28208,-1.84792 4.30744,5.75802 c 3.98118,5.32188 4.18735,5.89071 2.72204,7.50987 -1.49385,1.65068 -4.27543,2.42236 -4.27543,1.18611 0,-0.31116 0.46583,-1.43616 1.03518,-2.5 1.47379,-2.7538 -0.2129,-2.47969 -5.01968,0.81574 -2.68079,1.8379 -3.8772,3.33009 -3.60722,4.499 0.70779,3.06446 -0.92474,2.73016 -3.70925,-0.75956 z m -10.5157,-14.70611 c -1.64799,-1.64799 -1.47778,-5.29407 0.31667,-6.78333 0.825,-0.68469 1.5,-1.88062 1.5,-2.65763 0,-1.10936 -0.4355,-1.17967 -2.02801,-0.32738 -1.1154,0.59695 -1.76385,1.51278 -1.44098,2.03518 0.32286,0.52241 -0.0423,0.94983 -0.81148,0.94983 -0.76917,0 -1.85983,-1.0125 -2.42367,-2.25 -1.56424,-3.43313 -1.47978,-4.2409 0.45505,-4.35213 2.6828,-0.15423 8.54091,-3.35095 10.36794,-5.65769 1.58703,-2.00373 1.67056,-1.95566 4.25,2.44582 1.44713,2.46934 2.63115,5.40758 2.63115,6.52941 0,2.8073 -2.48352,4.61648 -5.53614,4.03293 -2.03913,-0.3898 -2.84272,0.0836 -4.02601,2.37185 -0.81311,1.57237 -1.43176,3.12607 -1.37478,3.45267 0.21642,1.2405 -0.74236,1.34785 -1.87974,0.21047 z m 8.81667,-11.78333 c 0,-2.28944 -0.37535,-2.40467 -3.09375,-0.94983 -2.30187,1.23192 -1.63052,2.94983 1.15277,2.94983 1.27431,0 1.94098,-0.68694 1.94098,-2 z m 287.99368,10.25 c -0.008,-2.33715 -5.39983,-5.44385 -6.87949,-3.96419 -1.81349,1.81349 -2.45707,-0.0438 -1.12747,-3.25375 0.69076,-1.66763 1.43022,-3.03206 1.64326,-3.03206 0.21304,0 2.25036,1.34956 4.52738,2.99903 2.88111,2.08707 4.50292,2.69788 5.33335,2.00868 2.18975,-1.81733 2.36707,0.11902 0.32746,3.5759 -2.19489,3.72005 -3.81452,4.42575 -3.82449,1.66639 z m 5.07001,-13.81084 c -3.57194,-4.97384 -4.41412,-5.05943 -4.28264,-0.43525 0.0855,3.00897 -0.42537,3.11732 -3.50144,0.74252 -0.939,-0.72493 -0.76138,-1.84192 0.77032,-4.8443 1.0949,-2.14617 2.39678,-3.90213 2.89307,-3.90213 1.55584,0 10.26063,10.86151 9.58322,11.95758 -1.11459,1.80344 -2.09343,1.17297 -5.46253,-3.51842 z m -311.38988,-5.5867 c -4.04114,-3.55262 -4.46663,-7.78691 -1.11889,-11.13466 4.37255,-4.37254 11.3713,-3.69494 13.98207,1.35372 2.05692,3.97766 1.82727,6.23765 -0.89359,8.79377 -3.64746,3.42661 -8.71893,3.84487 -11.96959,0.98717 z m 8.57619,-4.02598 c 2.1859,-1.12024 2.28895,-4.68243 0.15911,-5.49973 -2.3773,-0.91226 -8.40911,2.30869 -8.40911,4.4904 0,1.01724 0.29181,2.14132 0.64846,2.49797 0.71852,0.71852 4.88806,-0.098 7.60154,-1.48864 z m 140.25,0.0948 c -18.45106,-4.86352 -42.82644,-6.56069 -65.75,-4.57792 l -9.75,0.84333 v -60.97669 -60.9767 l 2.25,-0.60297 c 1.2375,-0.33164 2.5875,-0.60913 3,-0.61664 0.4125,-0.007 0.75,24.73631 0.75,54.98631 v 55 h 9.44878 c 19.24834,0 41.97605,4.3268 61.02332,11.61736 l 9.45828,3.62025 11.04712,-4.14048 c 18.93721,-7.0977 40.02612,-11.03907 59.2725,-11.07761 l 9.75,-0.0195 V 209.36263 154.246 l 2.25,0.60297 c 1.2375,0.33164 2.5875,0.60913 3,0.61664 0.4125,0.008 0.75,27.52827 0.75,61.15725 v 61.1436 l -7.17864,-0.66719 c -25.20245,-2.34232 -43.17544,-1.48895 -62.32136,2.95904 -14.4177,3.34953 -18.59652,3.55727 -27,1.34219 z m 163.48105,-0.67128 c -3.19383,-2.87921 -5.40903,-10.25 -3.08051,-10.25 0.63923,0 1.32994,0.5625 1.53491,1.25 1.55681,5.22166 1.70894,5.39503 2.63249,3 0.63233,-1.63985 1.68035,-2.25 3.86465,-2.25 4.89757,0 6.72007,5.34734 3.06741,9 -2.68136,2.68136 -4.38989,2.52156 -8.01895,-0.75 z m 7.01895,-2.64301 c 0,-1.50843 -2.42909,-2.84457 -3.40223,-1.87142 -1.31691,1.3169 -0.48035,3.26443 1.40223,3.26443 1.1,0 2,-0.62686 2,-1.39301 z m -164.25092,-3.64256 c -0.96301,-0.58566 -7.03801,-2.79958 -13.5,-4.91981 -14.34394,-4.70637 -33.42339,-8.04322 -47.63028,-8.33018 l -10.61694,-0.21444 -9.3e-4,-59.13337 -9.3e-4,-59.13337 2.25,-0.60297 c 1.2375,-0.33164 2.8125,-0.60913 3.5,-0.61664 0.98508,-0.0108 1.25011,11.69601 1.25053,55.23635 l 5.3e-4,55.25 12.24947,1.72072 c 14.88375,2.09077 29.7035,6.77012 45.17281,14.26335 l 11.57666,5.60766 11.57666,-5.60766 c 15.46931,-7.49323 30.28906,-12.17258 45.17281,-14.26335 l 12.24947,-1.72072 5.3e-4,-55.36663 5.3e-4,-55.36663 2.25,0.60297 c 1.2375,0.33164 2.8125,0.60913 3.5,0.61664 0.98587,0.0108 1.25,12.60986 1.25,59.62494 v 59.61129 l -3.38868,-0.63572 c -4.55682,-0.85486 -24.91836,1.07572 -36.44997,3.456 -5.13625,1.0602 -14.58625,3.76215 -21,6.00434 -13.3997,4.68441 -16.96709,5.40428 -19.41227,3.91723 z m 169.39853,-7.21443 c -1.25615,-3.16257 -1.3152,-3.18888 -2.19522,-0.97783 -1.24196,3.12044 -3.49948,3.75461 -6.46011,1.81473 -4.62058,-3.02752 -2.59943,-9.5869 2.95401,-9.5869 4.17493,0 8.55371,4.64652 8.55371,9.07673 0,3.85384 -1.24872,3.71081 -2.85239,-0.32673 z m -4.14761,-3.19098 c 0,-0.79254 -0.48921,-1.74333 -1.08713,-2.11287 -1.41202,-0.87268 -3.3394,1.0547 -2.46672,2.46672 0.98021,1.58602 3.55385,1.32977 3.55385,-0.35385 z m -328.90217,1.29176 c -1.57983,-4.5319 -1.41122,-6.18502 0.55391,-5.43092 2.02905,0.77861 12.34826,-2.10264 12.34826,-3.44779 0,-2.78747 1.8452,-0.30446 3.37115,4.53641 1.88915,5.99308 1.5872,7.49152 -1.50962,7.49152 -1.72469,0 -1.92399,-0.43914 -1.36153,-3 0.57276,-2.60776 0.37767,-3 -1.49211,-3 -1.74332,0 -2.09007,0.50469 -1.82946,2.66275 0.38599,3.1962 -1.73602,4.30651 -2.66096,1.3923 -0.86148,-2.71429 -4.51747,-2.75884 -4.51747,-0.055 0,3.04719 -1.6698,2.38598 -2.90217,-1.14922 z m 155.90217,-1.40879 c -14.11177,-7.03307 -38.60978,-14.3702 -48.16821,-14.42632 -6.26936,-0.0368 -5.83179,4.49928 -5.83179,-60.45599 0,-32.57449 0.21655,-59.4429 0.48122,-59.70757 0.26467,-0.26467 3.96291,-0.076 8.21832,0.41919 11.63068,1.35353 30.36961,7.1344 43.55046,13.4351 l 11.75,5.61672 v 59.83844 c 0,32.91114 -0.3375,59.76604 -0.75,59.67756 -0.4125,-0.0885 -4.575,-2.06719 -9.25,-4.39713 z m 14,-55.20199 V 148.7926 l 9.58288,-4.72549 c 15.14749,-7.4695 36.70052,-13.90226 49.41712,-14.74914 l 4.5,-0.29968 0.25786,59.70946 0.25786,59.70946 -2.25786,0.42906 c -1.24182,0.23598 -6.75786,1.16544 -12.25786,2.06547 -14.43958,2.36291 -31.20421,8.32224 -48.75,17.32918 -0.4125,0.21175 -0.75,-26.58199 -0.75,-59.54166 z m -176.5,17.80051 c -1.1,-0.45799 -3.35,-2.25901 -5,-4.00227 -2.64852,-2.79822 -3,-3.87323 -3,-9.17567 0,-5.76881 0.16638,-6.16129 4.21128,-9.93433 3.68936,-3.4414 4.80475,-3.92742 9,-3.92165 11.35007,0.0156 18.17115,11.97543 12.27296,21.51891 -3.31978,5.37152 -11.5749,7.97541 -17.48424,5.51501 z m 337,0 c -1.1,-0.45799 -3.35,-2.25901 -5,-4.00227 -2.64852,-2.79822 -3,-3.87323 -3,-9.17567 0,-5.76881 0.16638,-6.16129 4.21128,-9.93433 3.63249,-3.38836 4.84188,-3.92824 8.79966,-3.92824 8.82921,0 14.48158,5.46441 14.48158,14 0,5.40543 -2.7012,10.28087 -6.89864,12.45145 -3.21028,1.6601 -9.33358,1.94651 -12.59388,0.58906 z M 509.79613,170.5823 c -1.12892,-2.21285 -2.05257,-4.68959 -2.05257,-5.50388 0,-1.71492 11.67211,-16.53611 13.60757,-17.27881 0.71483,-0.27431 3.86742,0.46197 7.00575,1.63616 6.04349,2.26116 8.38668,2.12295 8.38668,-0.49468 0,-1.05299 0.70467,-1.49156 2.05886,-1.28138 1.46266,0.22701 2.76442,2.05703 4.49537,6.31955 1.34008,3.3 2.43859,6.3045 2.44114,6.67668 0.0104,1.52064 -3.68707,1.37969 -6.49537,-0.24761 -1.65,-0.95611 -5.35628,-2.43018 -8.23618,-3.27572 l -5.23619,-1.53734 -4.66468,6.06209 c -2.56557,3.33416 -4.95218,7.46784 -5.30357,9.18596 -0.9501,4.64547 -3.5616,4.53199 -6.00681,-0.26102 z m -298.29121,1.63663 c -0.87595,-0.68182 -1.7465,-2.12531 -1.93455,-3.20775 -0.26133,-1.5043 -3.14039,-3.0192 -12.21728,-6.42847 -10.93621,-4.10764 -11.97343,-4.32627 -13.11539,-2.76455 -1.0559,1.44403 -4.49414,1.45365 -4.49414,0.0126 0,-0.239 1.59885,-5.02836 3.553,-10.64301 3.9729,-11.41496 7.17383,-15.70849 11.71101,-15.70849 2.86254,0 7.87312,3.91138 8.87996,6.93192 0.37172,1.11516 1.12637,0.92809 3.58304,-0.88821 3.60367,-2.66431 6.69067,-2.30883 10.8239,1.24643 3.78912,3.25926 4.32334,9.52087 1.42563,16.70986 -1.2193,3.025 -2.99667,7.64634 -3.94971,10.26965 -2.12432,5.84732 -2.28273,6.01333 -4.26547,4.47002 z m 1.66721,-15.3111 c 2.32641,-2.32641 2.01312,-7.12181 -0.55506,-8.49627 -2.9599,-1.58408 -6.35784,0.1497 -7.66993,3.91354 -1.00024,2.86931 -0.88356,3.07055 2.62482,4.52695 2.01938,0.83828 3.75196,1.54734 3.85017,1.57568 0.0982,0.0283 0.88572,-0.65561 1.75,-1.5199 z m -13.51451,-6.67857 c 1.12568,-2.98112 -0.336,-5.56681 -3.61164,-6.38895 -2.03267,-0.51016 -3.06107,-0.14239 -4.47114,1.59898 -2.45665,3.03384 -2.35399,3.41697 1.41872,5.29459 4.44563,2.21252 5.67315,2.11957 6.66406,-0.50462 z m 302.7794,0.37079 c -1.41831,-3.64144 -2.87771,-7.40829 -3.2431,-8.37079 -0.50313,-1.32535 -0.14977,-1.75 1.45622,-1.75 1.16631,0 2.90195,0.48614 3.85699,1.08031 1.36147,0.84703 4.21973,0.11748 13.23643,-3.3785 9.72638,-3.77113 11.48797,-4.78403 11.42197,-6.5675 -0.0652,-1.76364 3.14545,-4.17591 3.96052,-2.97562 0.48919,0.7204 5.61751,14.42243 5.61751,15.00908 0,1.30797 -3.37909,1.83688 -4.11616,0.64428 -0.94617,-1.53094 -5.40789,-0.46608 -17.63384,4.20858 -7.0217,2.68479 -8.25,3.49626 -8.25,5.45028 0,1.39894 -0.72815,2.48624 -1.86389,2.78325 -1.5187,0.39714 -2.34147,-0.73876 -4.44265,-6.13337 z M 219.24356,127.59253 c -5.55982,-2.56141 -11.20748,-8.40487 -12.59311,-13.02972 -3.09896,-10.3434 5.74622,-23.083554 16.02636,-23.083554 6.58448,0 16.47872,6.75194 19.07331,13.015854 1.99695,4.82106 0.82331,13.20735 -2.44868,17.49715 -5.61101,7.35642 -12.23285,9.20527 -20.05788,5.60027 z m 15.78702,-10.28571 c 1.9692,-2.64761 1.96971,-2.70337 0.0545,-6 -2.39791,-4.12734 -11.63468,-9.82756 -15.92484,-9.82756 -3.34991,0 -4.74919,1.11931 -5.83568,4.66807 -0.91836,2.99964 4.04809,8.46833 10.71355,11.79696 6.16528,3.07885 8.32139,2.95381 10.99247,-0.63747 z m 256.14927,8.7599 c -4.18534,-1.82273 -10.26692,-9.16772 -11.05089,-13.34665 -0.3543,-1.88855 -0.13472,-5.13415 0.48795,-7.21244 2.30008,-7.676964 15.03066,-16.024843 22.33351,-14.644849 7.57584,1.43158 14.45926,8.708325 15.48719,16.372149 1.62443,12.111 -15.50927,23.9483 -27.25776,18.83179 z m 10.14082,-9.94607 c 4.22328,-2.86979 8.42289,-8.30518 8.42289,-10.90141 0,-7.356294 -7.23311,-7.803754 -15.5,-0.95889 -3.68436,3.0506 -6.48462,7.13403 -6.49341,9.46891 -0.004,0.9625 0.94028,2.69688 2.09758,3.85417 2.55534,2.55534 6.25367,2.08381 11.47294,-1.46278 z M 253.98642,95.629576 c -7.05096,-2.03149 -14.62748,-12.465724 -14.62748,-20.144663 0,-8.786085 7.40749,-16.917087 16.17965,-17.759987 5.86354,-0.56341 9.53518,1.08852 14.18162,6.380519 9.76131,11.117518 7.34946,24.539654 -5.47665,30.477951 -4.14955,1.92118 -6.41737,2.15248 -10.25714,1.04618 z m 11.53463,-8.707024 c 3.05889,-2.142525 2.83489,-6.086117 -0.65859,-11.594756 -4.78457,-7.544482 -10.34292,-10.404568 -15.18464,-7.813356 -5.25238,2.810988 1.08542,15.762198 9.56574,19.547458 3.8087,1.700044 3.64625,1.70365 6.27749,-0.139346 z m 194.72251,6.871684 c -3.7793,-1.048024 -10.4002,-6.584891 -12.06218,-10.08725 -3.14132,-6.619839 0.6434,-17.136945 8.25663,-22.94384 3.14754,-2.40075 4.56588,-2.78389 10.30555,-2.78389 5.78525,0 7.14707,0.3748 10.41298,2.86583 5.79929,4.42333 7.76491,8.229215 7.32682,14.18637 -0.4458,6.061967 -4.85918,13.122393 -10.30744,16.489604 -3.61101,2.231726 -10.2032,3.307296 -13.93236,2.273176 z m 7.82707,-10.255243 c 7.79899,-8.632558 9.17851,-17.141788 3.02923,-18.685159 -3.58692,-0.90026 -6.82404,1.20384 -10.83063,7.039827 -4.62898,6.742559 -5.40264,10.708624 -2.62984,13.481428 3.21151,3.211505 6.37393,2.654858 10.43124,-1.836096 z M 288.74356,75.082319 c 0,-0.896611 0.52077,-2.464089 1.15727,-3.483286 0.94917,-1.519865 0.33949,-3.90003 -3.3905,-13.236427 -4.08013,-10.21282 -4.82228,-11.41648 -7.21736,-11.70557 -2.02503,-0.24442 -2.59472,-0.80369 -2.3595,-2.31633 0.21918,-1.40947 2.35388,-2.85419 7.28124,-4.92778 3.83414,-1.61352 7.32164,-2.93367 7.75,-2.93367 1.11499,0 0.96376,4.41508 -0.19076,5.56961 -0.62615,0.62615 -0.21724,3.01203 1.15437,6.73546 l 2.12399,5.76585 2.34562,-6.70767 c 2.84626,-8.13929 2.85552,-8.36325 0.34563,-8.36325 -1.1,0 -2,-0.1882 -2,-0.41821 0,-0.23002 -0.27223,-1.12765 -0.60497,-1.99473 -0.45914,-1.1965 1.02739,-2.3089 6.16693,-4.61486 7.83553,-3.51557 9.67171,-2.95985 7.57236,2.29177 -2.57234,6.43481 -5.34784,14.85462 -4.99502,15.15296 4.85635,4.10646 13.63653,9.58307 15.36372,9.58307 1.87984,0 3.49698,1.646959 3.49698,3.561464 0,0.71772 -7.8849,4.438536 -9.40585,4.438536 -0.81703,0 -4.99746,-2.657558 -9.28983,-5.905685 -4.29238,-3.248125 -7.93565,-5.779295 -8.09617,-5.624825 -0.39253,0.37776 2.88069,8.733219 3.98691,10.177275 0.48316,0.630721 1.76193,0.915737 2.84171,0.633369 1.35309,-0.353842 1.96323,-0.01098 1.96323,1.103235 0,0.889147 0.1125,1.891599 0.25,2.22767 0.1375,0.336072 -2.675,1.715136 -6.25,3.064586 -9.86193,3.72257 -10,3.749182 -10,1.927438 z M 415.32668,68.95302 c -4.35429,-1.91057 -8.74179,-3.473764 -9.75,-3.473764 -1.00822,0 -1.83312,-0.413196 -1.83312,-0.918213 0,-2.229807 1.35414,-4.081787 2.98454,-4.081787 2.49769,0 3.20756,-1.20328 7.52226,-12.7509 3.4476,-9.22692 3.69552,-10.50255 2.48191,-12.7702 -2.21852,-4.14534 -0.068,-5.18076 5.70755,-2.7481 2.64206,1.11283 7.12465,2.77599 9.96131,3.69593 5.67345,1.8399 10.27879,5.4843 10.45758,8.27552 0.34504,5.38656 -1.56911,8.74493 -5.93601,10.4147 l -2.32086,0.88743 2.07086,2.63267 c 5.05499,6.426374 -0.30138,14.401123 -9.62948,14.336714 -2.09924,-0.01449 -7.34261,-1.580809 -11.71654,-3.5 z m 12.21688,-4.673764 c 2.27427,-2.274275 1.3687,-5.72635 -2.05,-7.81463 -3.07908,-1.88083 -3.31802,-1.8932 -4.54343,-0.2353 -2.02362,2.73783 -2.5469,6.134927 -1.19579,7.762916 1.48333,1.787303 6.11815,1.958085 7.78922,0.287014 z m 5.1735,-16.75048 c 0.56063,-1.04755 0.743,-2.62474 0.40526,-3.50486 -0.55268,-1.44027 -3.398,-3.54466 -4.79269,-3.54466 -0.65213,0 -4.8661,8.08149 -4.40583,8.44943 3.45607,2.76276 6.85507,2.22163 8.79326,-1.39991 z m -88.9735,10.40999 c 0,-0.84727 0.86727,-2.75977 1.92726,-4.25 1.06,-1.49023 4.04687,-8.90397 6.63751,-16.47497 5.14458,-15.03478 5.28337,-15.19008 13.00754,-14.55413 l 3.88167,0.31959 4.1492,15.39096 c 2.65518,9.84908 4.73389,15.71817 5.77301,16.29969 0.8931,0.4998 1.62381,1.78637 1.62381,2.85904 0,1.78928 -0.7431,1.95031 -9,1.95031 -8.14755,0 -9,-0.17839 -9,-1.88337 0,-1.06465 0.90142,-2.11909 2.0736,-2.42563 1.5922,-0.41637 1.99847,-1.19795 1.75,-3.36663 -0.29863,-2.60641 -0.69046,-2.8479 -5.07746,-3.12932 -4.37657,-0.28075 -4.83599,-0.0889 -5.78875,2.41703 -1.06404,2.79862 -0.0813,4.3374 2.79261,4.37261 0.6875,0.008 1.25,0.91531 1.25,2.01531 0,1.83333 -0.66667,2 -8,2 -6.5379,0 -8,-0.28154 -8,-1.54049 z m 20.98071,-16.20951 c -0.0106,-0.4125 -0.62732,-3 -1.37047,-5.75 l -1.35117,-5 -1.2023,3 c -0.66126,1.65 -1.4508,4.2375 -1.75453,5.75 -0.50829,2.53114 -0.30354,2.75 2.57276,2.75 1.71875,0 3.11632,-0.3375 3.10571,-0.75 z"
       id="path1-3" />
  </g>
</svg>
